<?xml version="1.0" encoding="utf-8"?>
<!-- Generator: Adobe Illustrator 22.1.0, SVG Export Plug-In . SVG Version: 6.00 Build 0)  -->
<svg version="1.1" id="Layer_1" xmlns="http://www.w3.org/2000/svg" xmlns:xlink="http://www.w3.org/1999/xlink" x="0px" y="0px"
	 viewBox="0 0 1141.7 646.5" style="enable-background:new 0 0 1141.7 646.5;" xml:space="preserve">
<style type="text/css">
	.st0{display:none;}
	.st1{display:inline;fill:#2392CF;}
	.st2{font-family:'FranklinGothic-Medium';}
	.st3{font-size:201.2474px;}
	.st4{display:inline;fill:#0C2D54;}
	.st5{display:inline;fill:#4C4C4C;}
	.st6{font-family:'ArialMT';}
	.st7{font-size:49.7193px;}
	.st8{display:inline;}
	.st9{fill:#0C2D54;}
	.st10{fill:#2392CF;}
	.st11{fill:#FFFFFF;}
	.st12{fill:#4168B2;}
	.st13{fill:#5A96F6;}
	.st14{fill:#888888;}
</style>
<g id="Editable" class="st0">
	<text transform="matrix(0.9969 0 0 1 390.7656 360.2651)" class="st1 st2 st3">SKY</text>
	<text transform="matrix(0.9969 0 0 1 738.3311 360.2651)" class="st4 st2 st3">SILK</text>
	<text transform="matrix(0.9969 0 0 1 299.8135 415.8638)" class="st5 st6 st7">MANAGED CLOUD SERVICES</text>
	<g class="st8">
		<path class="st9" d="M170.3,145.2c8.4-0.7,16.9-1,25.4-0.7c12,0.5,24,2.4,35.2,6.9c6.2,2.7,12.5,5.3,18.2,8.9
			c19.1,11.7,33.6,30,42.9,50.5c17.6-1.5,35.9,2.4,51,12c6,3.7,11.2,8.5,15.9,13.8c11,11.5,16.8,27.5,17.8,43.3
			c0.5,7.3,0,14.7-1.5,21.9c-3.3,15.9-12.1,30.3-23.9,41.2c-13.1,12-29.9,19.9-47.6,21.3c1-9.4,2.6-18.8,4.6-28.1
			c7.3-3,14.7-5.9,21.2-10.5c3.5-2.4,6.7-5.3,9.2-8.8c1.8-2.6,3.7-5.3,5.1-8.1c6.7-13.3,7.5-29.7,1.6-43.5
			c-3.1-7.3-8.3-13.7-14.9-18c-6.6-4.9-14.6-7.4-22.7-8.2c-12.3-1.3-24.6,0.7-37,0.6c-2.7-11.9-6.6-23.6-13.1-33.9
			c-3.6-5.6-7.9-10.8-13.1-15c-4.7-3.8-9.7-7.3-15.2-9.9c-15.3-7.5-32.8-9.3-49.6-8.1c-24.3-0.3-47.8,15-58.4,37.1
			c-2.7,5.7-4.5,11.8-5.3,18c-0.6,10.6-1.4,21.5,1.3,31.9c1.8,6.9,4.7,13.5,8.7,19.4c8.7,12.6,21.8,21.6,35.9,27.2
			c1.7-1.1,3.2-2.5,5-3.4c10.7-6.4,24.9-5.9,35.1,1.3c7.6,5.2,12.9,14,13.4,23.3c0.8,9.9-3.6,19.9-11.2,26c-8.2,6.9-19.8,9.1-30,6.1
			c-10.1-2.8-18.6-11-21.6-21.2c-0.7-2.3-1-4.7-1.3-7.1c-5.4-2.6-11.1-4.7-16.3-7.8c-10.1-5.8-19.2-13.5-26.7-22.5
			c-9.7-11.8-16.7-26.1-19.3-41.3c-1.2-6.4-1.2-12.9-1.4-19.4c0-11.1,1-22.3,4.8-32.8c2.3-6.1,5-12.1,8.4-17.7
			C116,165.5,142.3,148.8,170.3,145.2z M180,318.2c-4.6,1.2-8.2,5.8-8.1,10.6c-0.1,3.7,1.8,7.3,4.7,9.4c3.7,2.7,8.9,2.8,12.7,0.2
			c2.7-1.7,4.6-4.8,5-8c0.6-4.1-1.4-8.3-4.7-10.6C186.8,317.8,183.2,317.3,180,318.2z"/>
	</g>
	<g class="st8">
		<g>
			<g>
				<path class="st10" d="M12.4,257.6c12.2-25.4,38.1-43.6,65.9-45.9c-1.1,9.4-2.7,18.8-4.7,28.1c-7.1,2.9-14.3,5.8-20.7,10.1
					c-4.3,2.9-8.2,6.6-11,11c-7.2,9.9-10.3,22.5-9.2,34.7c0.8,8.7,3.8,17.3,9.1,24.2c3.7,4.9,8.7,8.6,14,11.7c9.1,5,19.7,6,29.8,5.7
					c8.5-0.1,17-1.1,25.5-1c3,13.6,7.8,27,16.1,38.3c3.9,5.2,8.4,9.8,13.7,13.5c9.2,7.1,20.1,11.6,31.4,13.7
					c8.4,1.7,16.9,2.1,25.4,1.8c3.1-0.3,6.2-0.2,9.2-0.4c16.5-1.2,32.3-9.5,43.4-21.9c8.8-9.9,14.9-22.6,15.6-36.1
					c0.4-8.6,0.9-17.3-0.8-25.9c-1.9-9.3-5.8-18.1-11.6-25.6c-8.3-10.6-19.8-18.4-32-23.5c-3.6,2.5-7.6,4.6-11.9,5.6
					c-11.8,3-25.1-1.1-32.9-10.7c-3.9-4.7-6.4-10.7-7-16.9c-0.6-6.9,1.1-14,4.9-19.7c6.3-9.7,18-15.2,29.3-14.3
					c6.9,0.4,13.6,3.1,18.8,7.7c6.9,5.8,11.1,14.9,10.9,24c3.4,1.7,7,3.1,10.3,4.9c18,9.6,33,25,41.7,43.7
					c4.1,8.8,6.8,18.3,7.7,28.1c0.5,7.4,0.7,14.8,0.2,22.3c-0.5,9.5-2.4,19.1-6.2,27.8c-8.4,21.2-25.1,38.5-45.2,48.6
					c-11.9,5.9-25,9.7-38.3,10c-8.9,0.4-17.8,0.5-26.6-0.4c-10.7-1.1-21.4-3.7-31.1-8.4c-20.2-8.2-37-23.8-48.4-42.4
					c-3-4.8-5.6-9.8-7.9-14.9c-19.1,1.5-38.9-3.1-54.6-14.5c-4.2-3.1-8.1-6.6-11.5-10.5c-11.2-11.2-17.2-26.8-18.4-42.5
					C4.2,284.1,6.3,270,12.4,257.6z M199.9,233.8c-3.3,0.4-6.3,2.3-8,5.1c-2,3.1-2.3,7.3-0.7,10.7c1.4,3.2,4.4,5.6,7.7,6.3
					c3.2,0.8,6.7,0,9.4-2c2.7-2.1,4.5-5.5,4.3-9c0.1-3.1-1.3-6.1-3.6-8.2C206.6,234.4,203.1,233.3,199.9,233.8z"/>
			</g>
		</g>
	</g>
</g>
<g id="White" class="st0">
	<g class="st8">
		<path class="st11" d="M496.6,255.6l-26.6,8.9c-3.6-10.6-11.2-15.9-22.8-15.9c-12.4,0-18.6,4-18.6,12.1c0,3.2,1.2,5.9,3.5,8.2
			c2.3,2.2,7.5,4.2,15.7,5.8c13.6,2.8,23.6,5.5,29.9,8.4c6.3,2.8,11.7,7.4,16,13.6c4.3,6.3,6.5,13.2,6.5,21
			c0,12.1-4.6,22.6-13.9,31.4s-23.1,13.3-41.4,13.3c-13.7,0-25.4-3.1-35-9.4s-16-15.5-19-27.9l29-6.6c3.3,12.5,12.3,18.8,27.2,18.8
			c7.2,0,12.5-1.4,16-4.2c3.5-2.8,5.3-6.1,5.3-10s-1.6-7-4.8-9.1c-3.2-2.2-9.4-4.2-18.5-6.1c-17-3.5-29.2-8.4-36.4-14.5
			s-10.9-15.1-10.9-26.9c0-11.9,4.3-22,13-30.2c8.6-8.2,20.4-12.3,35.2-12.3C472.2,224.1,489.1,234.6,496.6,255.6z"/>
		<path class="st11" d="M551.4,226.1v63l41.9-63h30L591.2,274l40.1,86.2h-34.5L570.2,302l-18.8,27.5v30.8h-30.8V226.1H551.4z"/>
		<path class="st11" d="M743.6,226.1l-42,77.6v56.5h-31.2v-56.5l-42-77.6h36.3l25.5,50.8l25.4-50.8L743.6,226.1L743.6,226.1z"/>
		<path class="st11" d="M843.1,255.6l-26.6,8.9c-3.6-10.6-11.2-15.9-22.8-15.9c-12.4,0-18.6,4-18.6,12.1c0,3.2,1.2,5.9,3.5,8.2
			c2.3,2.2,7.5,4.2,15.7,5.8c13.6,2.8,23.6,5.5,29.9,8.4c6.3,2.8,11.7,7.4,16,13.6s6.5,13.2,6.5,21c0,12.1-4.7,22.6-13.9,31.4
			c-9.3,8.8-23.1,13.3-41.3,13.3c-13.7,0-25.4-3.1-35-9.4s-16-15.5-19-27.9l29-6.6c3.3,12.5,12.3,18.8,27.2,18.8
			c7.2,0,12.5-1.4,16-4.2c3.5-2.8,5.3-6.1,5.3-10s-1.6-7-4.8-9.1c-3.2-2.2-9.4-4.2-18.5-6.1c-17-3.5-29.2-8.4-36.4-14.5
			s-10.9-15.1-10.9-26.9c0-11.9,4.3-22,13-30.2c8.6-8.2,20.4-12.3,35.2-12.3C818.8,224.1,835.6,234.6,843.1,255.6z"/>
		<path class="st11" d="M898.5,226.1v134.1h-31.2V226.1H898.5z"/>
		<path class="st11" d="M957,333.7h53.2v26.5h-84.9V226.1H957V333.7L957,333.7z"/>
		<path class="st11" d="M1057.1,226.1v63l41.9-63h30l-32.1,47.9l40.1,86.2h-34.5l-26.7-58.2l-18.8,27.5v30.8h-30.8V226.1H1057.1z"/>
	</g>
	<g class="st8">
		<path class="st11" d="M333.6,415.9v-22.1h-0.2L322.6,412h-0.9L311,393.8h-0.2v22.1h-5.3v-32.5h5.7l11.3,19.1h0.1l11.3-19.1h5.5
			v32.5H333.6z"/>
		<path class="st11" d="M364.6,383.4h5.1l15,32.5h-6.1l-3.9-8.8h-15.4l-3.9,8.8h-5.8L364.6,383.4z M361.3,402.6h11.4l-5.6-12.6h-0.3
			L361.3,402.6z"/>
		<path class="st11" d="M424.4,383.4v32.5h-4.9l-18.7-22.5l0,0v22.5h-5.6v-32.5h4.9l18.7,22.5l0,0v-22.5H424.4z"/>
		<path class="st11" d="M449.8,383.4h5.1l15,32.5h-6.1l-3.9-8.8h-15.4l-3.9,8.8h-5.8L449.8,383.4z M446.5,402.6h11.4l-5.6-12.6H452
			L446.5,402.6z"/>
		<path class="st11" d="M505.9,391.8c-2.7-2.7-7.3-4.4-11.2-4.4c-7,0-11.9,5.6-11.9,12.3c0,6.3,4.3,12.2,12.4,12.2
			c3.4,0,7.3-1,9.5-2.6v-6.5h-10.2v-5h15.2V412c-4.1,3-9.8,4.9-14.9,4.9c-10.3,0-17.9-7.7-17.9-17.3s7.7-17.2,17.6-17.2
			c5.2,0,10.7,2.1,15.1,5.9L505.9,391.8z"/>
		<path class="st11" d="M541.5,401.4H529v9.5h21.9v5h-27.5v-32.5h26.3v5H529v8.1h12.4L541.5,401.4L541.5,401.4z"/>
		<path class="st11" d="M562.5,415.9v-32.5H578c5.8,0,9.1,1.6,11.9,4.3c2.9,3,4.4,7.2,4.4,11.9c0,4.9-1.7,9.3-4.8,12.3
			c-2.8,2.5-5.7,4-11.5,4L562.5,415.9L562.5,415.9z M577.8,410.9c4.1,0,5.5-0.9,7.4-2.5c2.1-2.1,3.3-5.3,3.3-8.7
			c0-3.4-1.1-6.4-3.1-8.5c-1.8-1.7-3.6-2.7-7.6-2.7h-9.7V411L577.8,410.9L577.8,410.9z"/>
		<path class="st11" d="M652.2,410.1c-3.5,3.5-8.9,6.8-16,6.8c-10.7,0-17.7-7.7-17.7-17.3c0-9.4,7.1-17.2,17.4-17.2
			c5.9,0,11.5,2.3,15.2,5.7l-3.8,3.7c-2.9-2.7-7.3-4.5-11.3-4.5c-7.1,0-11.7,5.6-11.7,12.3c0,6.8,4.7,12.2,11.9,12.2
			c5.1,0,9.4-2.5,12.1-5.5L652.2,410.1z"/>
		<path class="st11" d="M668.9,383.4v27.5h19.9v5h-25.4v-32.5H668.9z"/>
		<path class="st11" d="M713.9,382.4c10.2,0,18.3,7.7,18.3,17.2c0,9.6-8.1,17.3-18.3,17.3s-18.2-7.7-18.2-17.3
			C695.7,390.1,703.7,382.4,713.9,382.4z M713.9,411.9c7,0,12.5-5.6,12.5-12.3c0-6.7-5.5-12.2-12.5-12.2c-6.9,0-12.3,5.5-12.3,12.2
			C701.6,406.3,707,411.9,713.9,411.9z"/>
		<path class="st11" d="M772.2,383.4v20.9c0,8-6.1,12.5-14.4,12.5c-8.2,0-14.3-4.5-14.3-12.5v-20.9h5.6v20.9c0,4.9,3.9,7.6,8.8,7.6
			c5,0,8.8-2.7,8.8-7.6v-20.9H772.2z"/>
		<path class="st11" d="M786.5,415.9v-32.5H802c5.8,0,9.1,1.6,11.9,4.3c2.9,3,4.4,7.2,4.4,11.9c0,4.9-1.7,9.3-4.8,12.3
			c-2.8,2.5-5.7,4-11.5,4L786.5,415.9L786.5,415.9z M801.7,410.9c4.1,0,5.5-0.9,7.4-2.5c2.1-2.1,3.3-5.3,3.3-8.7
			c0-3.4-1.1-6.4-3.1-8.5c-1.8-1.7-3.6-2.7-7.6-2.7H792V411L801.7,410.9L801.7,410.9z"/>
		<path class="st11" d="M868.2,391c-1.8-1.6-5.8-3.8-11.7-3.8c-3.9,0-7.3,1.2-7.3,4.7s4.8,3.7,9.7,4c5.8,0.4,14.9,1,14.9,10
			c0,7.9-6.5,10.9-14.3,10.9c-8.5,0-14.1-3.5-17.7-6.8l3.4-3.9c2.6,2.4,7.2,5.9,14.4,5.9c4.8,0,8.6-1.6,8.6-5.3
			c0-4.1-3.7-4.9-9.4-5.4c-7.1-0.5-15.3-1.1-15.3-8.9c0-7.7,7.1-10,13-10c6.8,0,12.3,2.7,14.9,4.7L868.2,391z"/>
		<path class="st11" d="M903.5,401.4H891v9.5h21.9v5h-27.5v-32.5h26.3v5H891v8.1h12.4L903.5,401.4L903.5,401.4z"/>
		<path class="st11" d="M924.5,415.9v-32.5h17.8c4.3,0,7.3,1.2,9.4,3.4c1.6,1.7,2.6,4,2.6,6.5c0,4.4-2.9,7.7-7.1,9.3l7.7,13.2h-6.4
			l-6.9-12.5h-11.5v12.5L924.5,415.9L924.5,415.9z M930.1,388.4v10h13.3c2.9,0,5.4-2.3,5.4-5.1c0-1.2-0.5-2.3-1.3-3.2
			c-1.5-1.6-3.3-1.7-5.1-1.7L930.1,388.4L930.1,388.4z"/>
		<path class="st11" d="M997.6,383.4l-15,32.5h-5.1l-15-32.5h6.3l11.2,25.4h0.3l11.2-25.4H997.6z"/>
		<path class="st11" d="M1008,415.9v-32.5h5.6v32.5H1008z"/>
		<path class="st11" d="M1059.2,410.1c-3.5,3.5-8.9,6.8-16,6.8c-10.7,0-17.7-7.7-17.7-17.3c0-9.4,7.1-17.2,17.4-17.2
			c5.9,0,11.5,2.3,15.2,5.7l-3.8,3.7c-2.9-2.7-7.3-4.5-11.3-4.5c-7.1,0-11.7,5.6-11.7,12.3c0,6.8,4.7,12.2,11.9,12.2
			c5.1,0,9.4-2.5,12.1-5.5L1059.2,410.1z"/>
		<path class="st11" d="M1088.2,401.4h-12.4v9.5h21.9v5h-27.5v-32.5h26.3v5h-20.7v8.1h12.4L1088.2,401.4L1088.2,401.4z"/>
		<path class="st11" d="M1132.2,391c-1.8-1.6-5.8-3.8-11.7-3.8c-3.9,0-7.3,1.2-7.3,4.7s4.8,3.7,9.7,4c5.8,0.4,14.9,1,14.9,10
			c0,7.9-6.5,10.9-14.3,10.9c-8.5,0-14.1-3.5-17.7-6.8l3.4-3.9c2.6,2.4,7.2,5.9,14.4,5.9c4.8,0,8.6-1.6,8.6-5.3
			c0-4.1-3.7-4.9-9.4-5.4c-7.1-0.5-15.3-1.1-15.3-8.9c0-7.7,7.1-10,13-10c6.8,0,12.3,2.7,14.9,4.7L1132.2,391z"/>
	</g>
	<g class="st8">
		<path class="st11" d="M170.3,145.2c8.4-0.7,16.9-1,25.4-0.7c12,0.5,24,2.4,35.2,6.9c6.2,2.7,12.5,5.3,18.2,8.9
			c19.1,11.7,33.6,30,42.9,50.5c17.6-1.5,35.9,2.4,51,12c6,3.7,11.2,8.5,15.9,13.8c11,11.5,16.8,27.5,17.8,43.3
			c0.5,7.3,0,14.7-1.5,21.9c-3.3,15.9-12.1,30.3-23.9,41.2c-13.1,12-29.9,19.9-47.6,21.3c1-9.4,2.6-18.8,4.6-28.1
			c7.3-3,14.7-5.9,21.2-10.5c3.5-2.4,6.7-5.3,9.2-8.8c1.8-2.6,3.7-5.3,5.1-8.1c6.7-13.3,7.5-29.7,1.6-43.5
			c-3.1-7.3-8.3-13.7-14.9-18c-6.6-4.9-14.6-7.4-22.7-8.2c-12.3-1.3-24.6,0.7-37,0.6c-2.7-11.9-6.6-23.6-13.1-33.9
			c-3.6-5.6-7.9-10.8-13.1-15c-4.7-3.8-9.7-7.3-15.2-9.9c-15.3-7.5-32.8-9.3-49.6-8.1c-24.3-0.3-47.8,15-58.4,37.1
			c-2.7,5.7-4.5,11.8-5.3,18c-0.6,10.6-1.4,21.5,1.3,31.9c1.8,6.9,4.7,13.5,8.7,19.4c8.7,12.6,21.8,21.6,35.9,27.2
			c1.7-1.1,3.2-2.5,5-3.4c10.7-6.4,24.9-5.9,35.1,1.3c7.6,5.2,12.9,14,13.4,23.3c0.8,9.9-3.6,19.9-11.2,26c-8.2,6.9-19.8,9.1-30,6.1
			c-10.1-2.8-18.6-11-21.6-21.2c-0.7-2.3-1-4.7-1.3-7.1c-5.4-2.6-11.1-4.7-16.3-7.8c-10.1-5.8-19.2-13.5-26.7-22.5
			c-9.7-11.8-16.7-26.1-19.3-41.3c-1.2-6.4-1.2-12.9-1.4-19.4c0-11.1,1-22.3,4.8-32.8c2.3-6.1,5-12.1,8.4-17.7
			C116,165.5,142.3,148.8,170.3,145.2z M180,318.2c-4.6,1.2-8.2,5.8-8.1,10.6c-0.1,3.7,1.8,7.3,4.7,9.4c3.7,2.7,8.9,2.8,12.7,0.2
			c2.7-1.7,4.6-4.8,5-8c0.6-4.1-1.4-8.3-4.7-10.6C186.8,317.8,183.2,317.3,180,318.2z"/>
	</g>
	<g class="st8">
		<g>
			<g>
				<path class="st11" d="M12.4,257.6c12.2-25.4,38.1-43.6,65.9-45.9c-1.1,9.4-2.7,18.8-4.7,28.1c-7.1,2.9-14.3,5.8-20.7,10.1
					c-4.3,2.9-8.2,6.6-11,11c-7.2,9.9-10.3,22.5-9.2,34.7c0.8,8.7,3.8,17.3,9.1,24.2c3.7,4.9,8.7,8.6,14,11.7c9.1,5,19.7,6,29.8,5.7
					c8.5-0.1,17-1.1,25.5-1c3,13.6,7.8,27,16.1,38.3c3.9,5.2,8.4,9.8,13.7,13.5c9.2,7.1,20.1,11.6,31.4,13.7
					c8.4,1.7,16.9,2.1,25.4,1.8c3.1-0.3,6.2-0.2,9.2-0.4c16.5-1.2,32.3-9.5,43.4-21.9c8.8-9.9,14.9-22.6,15.6-36.1
					c0.4-8.6,0.9-17.3-0.8-25.9c-1.9-9.3-5.8-18.1-11.6-25.6c-8.3-10.6-19.8-18.4-32-23.5c-3.6,2.5-7.6,4.6-11.9,5.6
					c-11.8,3-25.1-1.1-32.9-10.7c-3.9-4.7-6.4-10.7-7-16.9c-0.6-6.9,1.1-14,4.9-19.7c6.3-9.7,18-15.2,29.3-14.3
					c6.9,0.4,13.6,3.1,18.8,7.7c6.9,5.8,11.1,14.9,10.9,24c3.4,1.7,7,3.1,10.3,4.9c18,9.6,33,25,41.7,43.7
					c4.1,8.8,6.8,18.3,7.7,28.1c0.5,7.4,0.7,14.8,0.2,22.3c-0.5,9.5-2.4,19.1-6.2,27.8c-8.4,21.2-25.1,38.5-45.2,48.6
					c-11.9,5.9-25,9.7-38.3,10c-8.9,0.4-17.8,0.5-26.6-0.4c-10.7-1.1-21.4-3.7-31.1-8.4c-20.2-8.2-37-23.8-48.4-42.4
					c-3-4.8-5.6-9.8-7.9-14.9c-19.1,1.5-38.9-3.1-54.6-14.5c-4.2-3.1-8.1-6.6-11.5-10.5c-11.2-11.2-17.2-26.8-18.4-42.5
					C4.2,284.1,6.3,270,12.4,257.6z M199.9,233.8c-3.3,0.4-6.3,2.3-8,5.1c-2,3.1-2.3,7.3-0.7,10.7c1.4,3.2,4.4,5.6,7.7,6.3
					c3.2,0.8,6.7,0,9.4-2c2.7-2.1,4.5-5.5,4.3-9c0.1-3.1-1.3-6.1-3.6-8.2C206.6,234.4,203.1,233.3,199.9,233.8z"/>
			</g>
		</g>
	</g>
</g>
<g id="Black" class="st0">
	<g class="st8">
		<path d="M496.6,255.6l-26.6,8.9c-3.6-10.6-11.2-15.9-22.8-15.9c-12.4,0-18.6,4-18.6,12.1c0,3.2,1.2,5.9,3.5,8.2
			c2.3,2.2,7.5,4.2,15.7,5.8c13.6,2.8,23.6,5.5,29.9,8.4c6.3,2.8,11.7,7.4,16,13.6c4.3,6.3,6.5,13.2,6.5,21
			c0,12.1-4.6,22.6-13.9,31.4s-23.1,13.3-41.4,13.3c-13.7,0-25.4-3.1-35-9.4s-16-15.5-19-27.9l29-6.6c3.3,12.5,12.3,18.8,27.2,18.8
			c7.2,0,12.5-1.4,16-4.2c3.5-2.8,5.3-6.1,5.3-10s-1.6-7-4.8-9.1c-3.2-2.2-9.4-4.2-18.5-6.1c-17-3.5-29.2-8.4-36.4-14.5
			s-10.9-15.1-10.9-26.9c0-11.9,4.3-22,13-30.2c8.6-8.2,20.4-12.3,35.2-12.3C472.2,224.1,489.1,234.6,496.6,255.6z"/>
		<path d="M551.4,226.1v63l41.9-63h30L591.2,274l40.1,86.2h-34.5L570.2,302l-18.8,27.5v30.8h-30.8V226.1H551.4z"/>
		<path d="M743.6,226.1l-42,77.6v56.5h-31.2v-56.5l-42-77.6h36.3l25.5,50.8l25.4-50.8L743.6,226.1L743.6,226.1z"/>
		<path d="M843.1,255.6l-26.6,8.9c-3.6-10.6-11.2-15.9-22.8-15.9c-12.4,0-18.6,4-18.6,12.1c0,3.2,1.2,5.9,3.5,8.2
			c2.3,2.2,7.5,4.2,15.7,5.8c13.6,2.8,23.6,5.5,29.9,8.4c6.3,2.8,11.7,7.4,16,13.6s6.5,13.2,6.5,21c0,12.1-4.7,22.6-13.9,31.4
			c-9.3,8.8-23.1,13.3-41.3,13.3c-13.7,0-25.4-3.1-35-9.4s-16-15.5-19-27.9l29-6.6c3.3,12.5,12.3,18.8,27.2,18.8
			c7.2,0,12.5-1.4,16-4.2c3.5-2.8,5.3-6.1,5.3-10s-1.6-7-4.8-9.1c-3.2-2.2-9.4-4.2-18.5-6.1c-17-3.5-29.2-8.4-36.4-14.5
			s-10.9-15.1-10.9-26.9c0-11.9,4.3-22,13-30.2c8.6-8.2,20.4-12.3,35.2-12.3C818.8,224.1,835.6,234.6,843.1,255.6z"/>
		<path d="M898.5,226.1v134.1h-31.2V226.1H898.5z"/>
		<path d="M957,333.7h53.2v26.5h-84.9V226.1H957V333.7L957,333.7z"/>
		<path d="M1057.1,226.1v63l41.9-63h30l-32.1,47.9l40.1,86.2h-34.5l-26.7-58.2l-18.8,27.5v30.8h-30.8V226.1H1057.1z"/>
	</g>
	<g class="st8">
		<path d="M333.6,415.9v-22.1h-0.2L322.6,412h-0.9L311,393.8h-0.2v22.1h-5.3v-32.5h5.7l11.3,19.1h0.1l11.3-19.1h5.5v32.5H333.6z"/>
		<path d="M364.6,383.4h5.1l15,32.5h-6.1l-3.9-8.8h-15.4l-3.9,8.8h-5.8L364.6,383.4z M361.3,402.6h11.4l-5.6-12.6h-0.3L361.3,402.6z
			"/>
		<path d="M424.4,383.4v32.5h-4.9l-18.7-22.5l0,0v22.5h-5.6v-32.5h4.9l18.7,22.5l0,0v-22.5H424.4z"/>
		<path d="M449.8,383.4h5.1l15,32.5h-6.1l-3.9-8.8h-15.4l-3.9,8.8h-5.8L449.8,383.4z M446.5,402.6h11.4l-5.6-12.6H452L446.5,402.6z"
			/>
		<path d="M505.9,391.8c-2.7-2.7-7.3-4.4-11.2-4.4c-7,0-11.9,5.6-11.9,12.3c0,6.3,4.3,12.2,12.4,12.2c3.4,0,7.3-1,9.5-2.6v-6.5
			h-10.2v-5h15.2V412c-4.1,3-9.8,4.9-14.9,4.9c-10.3,0-17.9-7.7-17.9-17.3s7.7-17.2,17.6-17.2c5.2,0,10.7,2.1,15.1,5.9L505.9,391.8z
			"/>
		<path d="M541.5,401.4H529v9.5h21.9v5h-27.5v-32.5h26.3v5H529v8.1h12.4L541.5,401.4L541.5,401.4z"/>
		<path d="M562.5,415.9v-32.5H578c5.8,0,9.1,1.6,11.9,4.3c2.9,3,4.4,7.2,4.4,11.9c0,4.9-1.7,9.3-4.8,12.3c-2.8,2.5-5.7,4-11.5,4
			L562.5,415.9L562.5,415.9z M577.8,410.9c4.1,0,5.5-0.9,7.4-2.5c2.1-2.1,3.3-5.3,3.3-8.7c0-3.4-1.1-6.4-3.1-8.5
			c-1.8-1.7-3.6-2.7-7.6-2.7h-9.7V411L577.8,410.9L577.8,410.9z"/>
		<path d="M652.2,410.1c-3.5,3.5-8.9,6.8-16,6.8c-10.7,0-17.7-7.7-17.7-17.3c0-9.4,7.1-17.2,17.4-17.2c5.9,0,11.5,2.3,15.2,5.7
			l-3.8,3.7c-2.9-2.7-7.3-4.5-11.3-4.5c-7.1,0-11.7,5.6-11.7,12.3c0,6.8,4.7,12.2,11.9,12.2c5.1,0,9.4-2.5,12.1-5.5L652.2,410.1z"/>
		<path d="M668.9,383.4v27.5h19.9v5h-25.4v-32.5H668.9z"/>
		<path d="M713.9,382.4c10.2,0,18.3,7.7,18.3,17.2c0,9.6-8.1,17.3-18.3,17.3s-18.2-7.7-18.2-17.3
			C695.7,390.1,703.7,382.4,713.9,382.4z M713.9,411.9c7,0,12.5-5.6,12.5-12.3c0-6.7-5.5-12.2-12.5-12.2c-6.9,0-12.3,5.5-12.3,12.2
			C701.6,406.3,707,411.9,713.9,411.9z"/>
		<path d="M772.2,383.4v20.9c0,8-6.1,12.5-14.4,12.5c-8.2,0-14.3-4.5-14.3-12.5v-20.9h5.6v20.9c0,4.9,3.9,7.6,8.8,7.6
			c5,0,8.8-2.7,8.8-7.6v-20.9H772.2z"/>
		<path d="M786.5,415.9v-32.5H802c5.8,0,9.1,1.6,11.9,4.3c2.9,3,4.4,7.2,4.4,11.9c0,4.9-1.7,9.3-4.8,12.3c-2.8,2.5-5.7,4-11.5,4
			L786.5,415.9L786.5,415.9z M801.7,410.9c4.1,0,5.5-0.9,7.4-2.5c2.1-2.1,3.3-5.3,3.3-8.7c0-3.4-1.1-6.4-3.1-8.5
			c-1.8-1.7-3.6-2.7-7.6-2.7H792V411L801.7,410.9L801.7,410.9z"/>
		<path d="M868.2,391c-1.8-1.6-5.8-3.8-11.7-3.8c-3.9,0-7.3,1.2-7.3,4.7s4.8,3.7,9.7,4c5.8,0.4,14.9,1,14.9,10
			c0,7.9-6.5,10.9-14.3,10.9c-8.5,0-14.1-3.5-17.7-6.8l3.4-3.9c2.6,2.4,7.2,5.9,14.4,5.9c4.8,0,8.6-1.6,8.6-5.3
			c0-4.1-3.7-4.9-9.4-5.4c-7.1-0.5-15.3-1.1-15.3-8.9c0-7.7,7.1-10,13-10c6.8,0,12.3,2.7,14.9,4.7L868.2,391z"/>
		<path d="M903.5,401.4H891v9.5h21.9v5h-27.5v-32.5h26.3v5H891v8.1h12.4L903.5,401.4L903.5,401.4z"/>
		<path d="M924.5,415.9v-32.5h17.8c4.3,0,7.3,1.2,9.4,3.4c1.6,1.7,2.6,4,2.6,6.5c0,4.4-2.9,7.7-7.1,9.3l7.7,13.2h-6.4l-6.9-12.5
			h-11.5v12.5L924.5,415.9L924.5,415.9z M930.1,388.4v10h13.3c2.9,0,5.4-2.3,5.4-5.1c0-1.2-0.5-2.3-1.3-3.2
			c-1.5-1.6-3.3-1.7-5.1-1.7L930.1,388.4L930.1,388.4z"/>
		<path d="M997.6,383.4l-15,32.5h-5.1l-15-32.5h6.3l11.2,25.4h0.3l11.2-25.4H997.6z"/>
		<path d="M1008,415.9v-32.5h5.6v32.5H1008z"/>
		<path d="M1059.2,410.1c-3.5,3.5-8.9,6.8-16,6.8c-10.7,0-17.7-7.7-17.7-17.3c0-9.4,7.1-17.2,17.4-17.2c5.9,0,11.5,2.3,15.2,5.7
			l-3.8,3.7c-2.9-2.7-7.3-4.5-11.3-4.5c-7.1,0-11.7,5.6-11.7,12.3c0,6.8,4.7,12.2,11.9,12.2c5.1,0,9.4-2.5,12.1-5.5L1059.2,410.1z"
			/>
		<path d="M1088.2,401.4h-12.4v9.5h21.9v5h-27.5v-32.5h26.3v5h-20.7v8.1h12.4L1088.2,401.4L1088.2,401.4z"/>
		<path d="M1132.2,391c-1.8-1.6-5.8-3.8-11.7-3.8c-3.9,0-7.3,1.2-7.3,4.7s4.8,3.7,9.7,4c5.8,0.4,14.9,1,14.9,10
			c0,7.9-6.5,10.9-14.3,10.9c-8.5,0-14.1-3.5-17.7-6.8l3.4-3.9c2.6,2.4,7.2,5.9,14.4,5.9c4.8,0,8.6-1.6,8.6-5.3
			c0-4.1-3.7-4.9-9.4-5.4c-7.1-0.5-15.3-1.1-15.3-8.9c0-7.7,7.1-10,13-10c6.8,0,12.3,2.7,14.9,4.7L1132.2,391z"/>
	</g>
	<g class="st8">
		<path d="M170.3,145.2c8.4-0.7,16.9-1,25.4-0.7c12,0.5,24,2.4,35.2,6.9c6.2,2.7,12.5,5.3,18.2,8.9c19.1,11.7,33.6,30,42.9,50.5
			c17.6-1.5,35.9,2.4,51,12c6,3.7,11.2,8.5,15.9,13.8c11,11.5,16.8,27.5,17.8,43.3c0.5,7.3,0,14.7-1.5,21.9
			c-3.3,15.9-12.1,30.3-23.9,41.2c-13.1,12-29.9,19.9-47.6,21.3c1-9.4,2.6-18.8,4.6-28.1c7.3-3,14.7-5.9,21.2-10.5
			c3.5-2.4,6.7-5.3,9.2-8.8c1.8-2.6,3.7-5.3,5.1-8.1c6.7-13.3,7.5-29.7,1.6-43.5c-3.1-7.3-8.3-13.7-14.9-18
			c-6.6-4.9-14.6-7.4-22.7-8.2c-12.3-1.3-24.6,0.7-37,0.6c-2.7-11.9-6.6-23.6-13.1-33.9c-3.6-5.6-7.9-10.8-13.1-15
			c-4.7-3.8-9.7-7.3-15.2-9.9c-15.3-7.5-32.8-9.3-49.6-8.1c-24.3-0.3-47.8,15-58.4,37.1c-2.7,5.7-4.5,11.8-5.3,18
			c-0.6,10.6-1.4,21.5,1.3,31.9c1.8,6.9,4.7,13.5,8.7,19.4c8.7,12.6,21.8,21.6,35.9,27.2c1.7-1.1,3.2-2.5,5-3.4
			c10.7-6.4,24.9-5.9,35.1,1.3c7.6,5.2,12.9,14,13.4,23.3c0.8,9.9-3.6,19.9-11.2,26c-8.2,6.9-19.8,9.1-30,6.1
			c-10.1-2.8-18.6-11-21.6-21.2c-0.7-2.3-1-4.7-1.3-7.1c-5.4-2.6-11.1-4.7-16.3-7.8c-10.1-5.8-19.2-13.5-26.7-22.5
			c-9.7-11.8-16.7-26.1-19.3-41.3c-1.2-6.4-1.2-12.9-1.4-19.4c0-11.1,1-22.3,4.8-32.8c2.3-6.1,5-12.1,8.4-17.7
			C116,165.5,142.3,148.8,170.3,145.2z M180,318.2c-4.6,1.2-8.2,5.8-8.1,10.6c-0.1,3.7,1.8,7.3,4.7,9.4c3.7,2.7,8.9,2.8,12.7,0.2
			c2.7-1.7,4.6-4.8,5-8c0.6-4.1-1.4-8.3-4.7-10.6C186.8,317.8,183.2,317.3,180,318.2z"/>
	</g>
	<g class="st8">
		<g>
			<g>
				<path d="M12.4,257.6c12.2-25.4,38.1-43.6,65.9-45.9c-1.1,9.4-2.7,18.8-4.7,28.1c-7.1,2.9-14.3,5.8-20.7,10.1
					c-4.3,2.9-8.2,6.6-11,11c-7.2,9.9-10.3,22.5-9.2,34.7c0.8,8.7,3.8,17.3,9.1,24.2c3.7,4.9,8.7,8.6,14,11.7c9.1,5,19.7,6,29.8,5.7
					c8.5-0.1,17-1.1,25.5-1c3,13.6,7.8,27,16.1,38.3c3.9,5.2,8.4,9.8,13.7,13.5c9.2,7.1,20.1,11.6,31.4,13.7
					c8.4,1.7,16.9,2.1,25.4,1.8c3.1-0.3,6.2-0.2,9.2-0.4c16.5-1.2,32.3-9.5,43.4-21.9c8.8-9.9,14.9-22.6,15.6-36.1
					c0.4-8.6,0.9-17.3-0.8-25.9c-1.9-9.3-5.8-18.1-11.6-25.6c-8.3-10.6-19.8-18.4-32-23.5c-3.6,2.5-7.6,4.6-11.9,5.6
					c-11.8,3-25.1-1.1-32.9-10.7c-3.9-4.7-6.4-10.7-7-16.9c-0.6-6.9,1.1-14,4.9-19.7c6.3-9.7,18-15.2,29.3-14.3
					c6.9,0.4,13.6,3.1,18.8,7.7c6.9,5.8,11.1,14.9,10.9,24c3.4,1.7,7,3.1,10.3,4.9c18,9.6,33,25,41.7,43.7
					c4.1,8.8,6.8,18.3,7.7,28.1c0.5,7.4,0.7,14.8,0.2,22.3c-0.5,9.5-2.4,19.1-6.2,27.8c-8.4,21.2-25.1,38.5-45.2,48.6
					c-11.9,5.9-25,9.7-38.3,10c-8.9,0.4-17.8,0.5-26.6-0.4c-10.7-1.1-21.4-3.7-31.1-8.4c-20.2-8.2-37-23.8-48.4-42.4
					c-3-4.8-5.6-9.8-7.9-14.9c-19.1,1.5-38.9-3.1-54.6-14.5c-4.2-3.1-8.1-6.6-11.5-10.5c-11.2-11.2-17.2-26.8-18.4-42.5
					C4.2,284.1,6.3,270,12.4,257.6z M199.9,233.8c-3.3,0.4-6.3,2.3-8,5.1c-2,3.1-2.3,7.3-0.7,10.7c1.4,3.2,4.4,5.6,7.7,6.3
					c3.2,0.8,6.7,0,9.4-2c2.7-2.1,4.5-5.5,4.3-9c0.1-3.1-1.3-6.1-3.6-8.2C206.6,234.4,203.1,233.3,199.9,233.8z"/>
			</g>
		</g>
	</g>
</g>
<path class="st12" d="M211,274.7c3.7-0.3,7.2-0.4,10.8-0.3c5.1,0.2,10.3,1,15,3c2.7,1.2,5.3,2.3,7.8,3.8c8.1,5,14.4,12.9,18.3,21.6
	c7.5-0.6,15.4,1,21.8,5.2c2.5,1.6,4.8,3.7,6.8,5.9c4.7,5,7.2,11.8,7.6,18.5c0.2,3.2,0,6.3-0.6,9.4c-1.4,6.8-5.2,13-10.3,17.6
	c-5.6,5.1-12.8,8.5-20.3,9.1c0.4-4,1.1-8.1,1.9-12c3.1-1.3,6.3-2.5,9-4.5c1.5-1,2.9-2.3,3.9-3.7c0.8-1.2,1.6-2.2,2.1-3.4
	c2.9-5.7,3.2-12.7,0.7-18.6c-1.3-3.2-3.5-5.9-6.3-7.7c-2.8-2.1-6.3-3.2-9.7-3.5c-5.2-0.6-10.5,0.3-15.8,0.3
	c-1.2-5.1-2.8-10.1-5.6-14.5c-1.5-2.4-3.4-4.6-5.6-6.4c-2-1.7-4.2-3.2-6.5-4.2c-6.5-3.2-14.1-3.9-21.2-3.4
	c-10.4-0.1-20.5,6.5-25,15.9c-1.2,2.4-1.9,5-2.2,7.7c-0.2,4.5-0.6,9.2,0.6,13.6c0.8,3,2,5.8,3.7,8.3c3.7,5.4,9.3,9.3,15.4,11.6
	c0.7-0.4,1.4-1.1,2.1-1.4c4.5-2.7,10.7-2.5,15,0.6c3.2,2.2,5.5,6,5.7,10c0.3,4.2-1.6,8.5-4.8,11.1c-3.5,3-8.5,3.9-12.8,2.6
	c-4.3-1.2-8-4.7-9.2-9c-0.3-1-0.4-2-0.6-3c-2.3-1.1-4.7-2-7-3.3c-4.3-2.5-8.2-5.7-11.4-9.6c-4.2-5-7.2-11.2-8.3-17.7
	c-0.5-2.8-0.5-5.5-0.6-8.3c0-4.7,0.4-9.6,2.1-14c1-2.6,2.1-5.2,3.6-7.6C187.7,283.4,199,276.2,211,274.7z M215.1,348.7
	c-1.9,0.6-3.4,2.4-3.4,4.5c-0.1,1.6,0.8,3.2,2,4c1.6,1.2,3.8,1.2,5.4,0.1c1.2-0.8,2-2,2.1-3.4c0.2-1.7-0.6-3.6-2-4.5
	C218,348.5,216.4,348.3,215.1,348.7z"/>
<g>
	<path class="st13" d="M143.4,322.7c5.2-10.9,16.3-18.7,28.2-19.6c-0.4,4-1.2,8.1-2,12.1c-3,1.2-6.1,2.5-8.8,4.3
		c-1.9,1.2-3.4,2.8-4.7,4.7c-3.1,4.2-4.4,9.6-3.9,14.8c0.3,3.7,1.7,7.4,3.9,10.3c1.6,2.1,3.7,3.7,6,5c3.9,2.1,8.4,2.6,12.7,2.4
		c3.7,0,7.2-0.5,10.9-0.4c1.3,5.8,3.3,11.6,6.9,16.4c1.7,2.2,3.7,4.2,5.9,5.7c3.9,3,8.6,5,13.4,5.9c3.6,0.7,7.2,0.9,10.8,0.8
		c1.3-0.1,2.7-0.1,3.9-0.1c7-0.6,13.8-4.1,18.5-9.3c3.8-4.2,6.4-9.6,6.7-15.4c0.1-3.7,0.4-7.4-0.3-11.1c-0.8-3.9-2.5-7.8-5-10.9
		c-3.5-4.5-8.5-7.9-13.6-10.1c-1.5,1.1-3.2,1.9-5.1,2.4c-5,1.3-10.7-0.5-14.1-4.5c-1.7-2-2.8-4.5-3-7.2c-0.3-3,0.5-6,2.1-8.4
		c2.7-4.1,7.7-6.5,12.5-6.1c3,0.1,5.8,1.4,8.1,3.2c3,2.5,4.8,6.3,4.7,10.3c1.4,0.7,3,1.3,4.4,2.1c7.7,4.1,14.1,10.7,17.8,18.7
		c1.8,3.7,3,7.9,3.3,12c0.2,3.2,0.3,6.3,0.1,9.5c-0.2,4.1-1,8.1-2.7,11.9c-3.6,9-10.7,16.5-19.3,20.7c-5.1,2.5-10.7,4.2-16.4,4.3
		c-3.8,0.1-7.6,0.2-11.4-0.1c-4.6-0.5-9.1-1.6-13.3-3.6c-8.7-3.4-15.8-10.2-20.7-18.1c-1.3-2.1-2.4-4.2-3.4-6.3
		c-8.1,0.6-16.7-1.4-23.4-6.2c-1.8-1.3-3.4-2.8-5-4.5c-4.8-4.8-7.3-11.4-7.9-18.2C139.8,334.1,140.8,328,143.4,322.7z M223.6,312.5
		c-1.4,0.1-2.7,1-3.4,2.1c-0.9,1.4-1,3.2-0.3,4.5c0.6,1.4,1.9,2.4,3.3,2.7c1.4,0.3,2.9,0,4-0.9c1.2-0.9,1.9-2.3,1.9-3.9
		c0.1-1.3-0.6-2.6-1.5-3.4C226.5,312.8,224.9,312.4,223.6,312.5z"/>
</g>
<path class="st14" d="M324.3,270h-6.6v-27.8h18.9c7,0,9.8,2.7,9.8,9.7c0,7.1-2.8,9.8-9.7,9.8h-12.4L324.3,270L324.3,270z
	 M324.3,256.3h11.1c3.4,0,4.3-1.3,4.3-4.3c0-2.7-0.8-4.2-4.3-4.2h-11.1V256.3z"/>
<path class="st14" d="M374.6,270h-12.2c-7.4,0-10.2-2.8-10.2-9.5v-8.7c0-7.6,2.7-9.9,10.2-9.9h12.2c6.9,0,10,2.1,10,9.9v8.7
	C384.7,267.5,382.4,270,374.6,270z M364,264.5h8.8c4.2,0,5.2-0.9,5.2-4.7v-7.4c0-4-1.4-5-5.3-5h-8.6c-4.2,0-5.3,1-5.3,5v7.4
	C358.8,263.5,360,264.5,364,264.5z"/>
<path class="st14" d="M396.5,242.3l8.7,22.2h0.4l7.8-22.2h6.9l7.9,22.2h0.5l8.5-22.2h6.9L433.3,270h-9.8l-6.7-18.9l-6.7,18.9h-9.8
	l-10.8-27.8h7V242.3z"/>
<path class="st14" d="M448.7,242.3h28.4v5.2h-21.7v6.1h21v4.8h-21v6.4h21.7v5.2h-28.4V242.3z"/>
<path class="st14" d="M489.7,270h-6.6v-27.8h21.1c5.8,0,9.9,1.9,9.9,9.8c0,4.2-2,6-4,7.2c2.8,0.9,4.5,2,4.5,5v5.8H508v-4.3
	c0-2.7-1.4-3.9-5.3-3.9h-12.9v8.2H489.7z M489.7,256.3h13.9c2.8,0,3.8-1.2,3.8-4.2c0-2.9-0.8-4.2-3.8-4.2h-13.9V256.3z"/>
<path class="st14" d="M520.7,242.3H549v5.2h-21.7v6.1h21v4.8h-21v6.4H549v5.2h-28.4v-27.7H520.7z"/>
<path class="st14" d="M555,242.3h21.4c6.8,0,9.8,2.8,9.8,10.1v7.4c0,7.2-2.6,10.3-9.8,10.3H555V242.3z M561.7,264.5h12
	c5,0,6-1.4,6-4.7v-7.3c0-3.1-1.2-4.7-6-4.7h-12V264.5z"/>
<path class="st14" d="M608.5,242.3h20c6.2,0,9.6,1.8,9.6,7c0,4.5-1.2,5.4-3.4,6.2c2.8,0.9,4.5,2.1,4.5,6.5c0,6-3,8.2-9.3,8.2h-21.4
	L608.5,242.3L608.5,242.3z M615.2,253.5h13.6c1.8,0,2.7-1.4,2.7-3.2c0-1.7-0.9-2.8-2.8-2.8h-13.5V253.5z M615.2,264.8h13.3
	c3.6,0,4-0.8,4-3.2c0-2.1-0.4-3.1-3.8-3.1h-13.6L615.2,264.8L615.2,264.8z"/>
<path class="st14" d="M649.7,242.3l9.2,12.9l9.3-12.9h8.4l-14.3,18.4v9.4h-6.6v-9.4l-14.3-18.4L649.7,242.3L649.7,242.3z"/>
<path class="st13" d="M358.9,358.7c0-2.9-0.9-5.1-2.8-6.7c-1.9-1.5-5.3-3.2-10.3-4.9c-10.1-3.3-17.5-6.7-22.4-10.4
	c-4.9-3.7-7.3-9-7.3-16c0-6.8,2.8-12.3,8.5-16.5s12.9-6.3,21.7-6.3c9.2,0,16.7,2.2,22.3,6.5c5.6,4.3,8.4,10.4,8.2,18.3l-0.1,0.3
	h-18.3c0-3.8-1-6.6-3.1-8.3c-2.1-1.7-5.2-2.6-9.4-2.6c-3.4,0-6.1,0.8-8.1,2.5s-3,3.7-3,6.2c0,2.4,1,4.3,3,5.7
	c2,1.4,5.8,3.2,11.3,5.4c9.4,2.8,16.5,6.2,21.3,10.2s7.2,9.5,7.2,16.5c0,7.1-2.8,12.7-8.4,16.7s-13,6-22.2,6s-16.9-2.2-23.3-6.5
	s-9.5-11.1-9.3-20.4l0.1-0.3H333c0,4.7,1.2,8.1,3.5,10.1s5.9,3,10.7,3c3.9,0,6.9-0.8,8.8-2.3C357.9,363.3,358.9,361.2,358.9,358.7z"
	/>
<path class="st13" d="M412.4,347.7h-5.2v32.5h-18.8v-81.1h18.8v31.7h3.9l18.3-31.7H453L427.5,336l27.7,44.2H431L412.4,347.7z"/>
<path class="st13" d="M495.2,334.5h0.3l16.1-35.4H532l-27.5,52.6v28.5h-18.8v-29.3l-27.1-51.7H479L495.2,334.5z"/>
<path class="st12" d="M578.3,358.7c0-2.9-0.9-5.1-2.8-6.7c-1.9-1.5-5.3-3.2-10.3-4.9c-10.1-3.3-17.5-6.7-22.4-10.4
	c-4.9-3.7-7.3-9-7.3-16c0-6.8,2.8-12.3,8.5-16.5s12.9-6.3,21.7-6.3c9.2,0,16.7,2.2,22.3,6.5s8.4,10.4,8.2,18.3l-0.1,0.3h-18.3
	c0-3.8-1-6.6-3.1-8.3c-2.1-1.7-5.2-2.6-9.4-2.6c-3.4,0-6.1,0.8-8.1,2.5s-3,3.7-3,6.2c0,2.4,1,4.3,3,5.7c2,1.4,5.8,3.2,11.3,5.4
	c9.4,2.8,16.5,6.2,21.3,10.2s7.2,9.5,7.2,16.5c0,7.1-2.8,12.7-8.4,16.7c-5.6,4-13,6-22.2,6s-16.9-2.2-23.3-6.5
	c-6.4-4.3-9.5-11.1-9.3-20.4l0.1-0.3h18.3c0,4.7,1.2,8.1,3.5,10.1s5.9,3,10.7,3c3.9,0,6.9-0.8,8.8-2.3
	C577.3,363.3,578.3,361.2,578.3,358.7z"/>
<path class="st12" d="M627,380.2h-18.8v-81.1H627V380.2z"/>
<path class="st12" d="M660,365.7h34.8v14.5h-53.6v-81.1H660V365.7z"/>
<path class="st12" d="M728.4,347.7h-5.2v32.5h-18.8v-81.1h18.8v31.7h3.9l18.3-31.7h23.7L743.5,336l27.7,44.2H747L728.4,347.7z"/>
<path class="st13" d="M977.5,384.9H832.1c-10.3,0-18.7-8.4-18.7-18.7v-50.4c0-10.3,8.4-18.7,18.7-18.7h145.4
	c10.3,0,18.7,8.4,18.7,18.7v50.4C996.2,376.5,987.8,384.9,977.5,384.9z"/>
<path class="st11" d="M845.9,323l13.9,26.8h1l14.1-26.8h9.2l-17.9,33.5h-11.6l-18-33.5H845.9z"/>
<path class="st11" d="M896.9,356.5h-8V323h22.8c8.4,0,11.8,3.3,11.8,11.7c0,8.5-3.4,11.9-11.7,11.9h-14.9L896.9,356.5L896.9,356.5z
	 M896.9,339.9h13.4c4.1,0,5.2-1.6,5.2-5.2c0-3.3-1-5.1-5.2-5.1h-13.4V339.9z"/>
<path class="st11" d="M960.3,332.5c0-2.1-0.7-3.1-4.1-3.1h-13.5c-2.3,0-3.9,0.9-3.9,3.5c0,3,1.6,3.4,3.9,3.4h14.6
	c7.4,0,10.9,0.8,10.9,10.1c0,7.1-3.1,10.2-11,10.2H941c-8.5,0-11.1-3-11.1-9.5h8c0,1.6,1.7,3.2,4,3.2h13.4c3.5,0,4.9-1.2,4.9-3.9
	c0-2.4-0.5-3.8-5.1-3.8h-11.9c-9.1,0-12.4-1.6-12.4-10.1c0-6.8,3.5-9.5,12.4-9.5h13.6c8.1,0,11.4,3,11.4,9.5L960.3,332.5
	L960.3,332.5z"/>
</svg>
